<svg width="20" height="20" viewBox="0 0 20 20" fill="none" xmlns="http://www.w3.org/2000/svg">
<path d="M9.96519 11.9805L18.1668 2.97832L19.2496 3.96481L10.0404 14.0729L5.01997 9.30038L6.02934 8.23872L9.96519 11.9805ZM18.6808 6.74023L17.5386 7.99793C17.7044 8.63468 17.7927 9.30233 17.7927 9.99023C17.7927 14.3518 14.2441 17.9004 9.88257 17.9004C5.521 17.9004 1.97241 14.3518 1.97241 9.99023C1.97241 5.62866 5.521 2.08008 9.88257 2.08008C11.9031 2.08008 13.7488 2.84203 15.1486 4.09309L16.1361 3.00579C14.4145 1.46072 12.2136 0.615234 9.88257 0.615234C7.37849 0.615234 5.02409 1.59039 3.25346 3.36113C1.48272 5.13176 0.507568 7.48615 0.507568 9.99023C0.507568 12.4943 1.48272 14.8487 3.25346 16.6193C5.02409 18.3901 7.37849 19.3652 9.88257 19.3652C12.3867 19.3652 14.741 18.3901 16.5117 16.6193C18.2824 14.8487 19.2576 12.4943 19.2576 9.99023C19.2576 8.86322 19.0595 7.76688 18.6808 6.74023Z" fill="#219653"/>
</svg>
