<svg viewBox="0 0 576 512.08" xmlns="http://www.w3.org/2000/svg" xmlns:xlink="http://www.w3.org/1999/xlink"><style>:root&gt;svg{display:none}:root&gt;svg:target{display:block}</style><svg viewBox="0 0 330 330" id="arrow-down" xmlns="http://www.w3.org/2000/svg"><path d="M325.607 79.393c-5.857-5.857-15.355-5.858-21.213.001l-139.39 139.393L25.607 79.393c-5.857-5.857-15.355-5.858-21.213.001-5.858 5.858-5.858 15.355 0 21.213l150.004 150a14.999 14.999 0 0021.212-.001l149.996-150c5.859-5.857 5.859-15.355.001-21.213z"/></svg><svg viewBox="0 0 443.52 443.52" id="arrow-left" xmlns="http://www.w3.org/2000/svg"><path d="M143.492 221.863L336.226 29.129c6.663-6.664 6.663-17.468 0-24.132-6.665-6.662-17.468-6.662-24.132 0l-204.8 204.8c-6.662 6.664-6.662 17.468 0 24.132l204.8 204.8c6.78 6.548 17.584 6.36 24.132-.42 6.387-6.614 6.387-17.099 0-23.712L143.492 221.863z"/></svg><svg viewBox="0 0 443.52 443.52" id="arrow-right" xmlns="http://www.w3.org/2000/svg"><path d="M336.226 209.591l-204.8-204.8c-6.78-6.548-17.584-6.36-24.132.42-6.388 6.614-6.388 17.099 0 23.712l192.734 192.734-192.734 192.734c-6.663 6.664-6.663 17.468 0 24.132 6.665 6.663 17.468 6.663 24.132 0l204.8-204.8c6.663-6.665 6.663-17.468 0-24.132z"/></svg><svg viewBox="0 0 240.835 240.835" id="arrow-up" xmlns="http://www.w3.org/2000/svg"><path d="M129.007 57.819c-4.68-4.68-12.499-4.68-17.191 0L3.555 165.803c-4.74 4.74-4.74 12.427 0 17.155 4.74 4.74 12.439 4.74 17.179 0l99.683-99.406 99.671 99.418c4.752 4.74 12.439 4.74 17.191 0 4.74-4.74 4.74-12.427 0-17.155L129.007 57.819z"/></svg><svg viewBox="0 -35 490.91 490" id="balance" xmlns="http://www.w3.org/2000/svg"><path d="M483.621 253.07l-55.996-119.937 24.172 6.933c5.308 1.524 10.848-1.543 12.367-6.855a9.995 9.995 0 00-6.851-12.367l-168.07-48.23c.034-.72.054-1.438.054-2.16.004-19.958-13.469-37.4-32.781-42.427-19.313-5.03-39.582 3.621-49.313 21.043L39.117.844C33.81-.68 28.27 2.39 26.747 7.699c-1.52 5.309 1.546 10.844 6.855 12.367l33.171 9.52L6.7 158.258A10.004 10.004 0 000 167.69c-.012 32.465 19.555 61.73 49.559 74.125 30.004 12.399 64.523 5.477 87.43-17.527a79.244 79.244 0 0023.921-56.598 10 10 0 00-7.289-9.62L97.79 38.487l103.883 29.805a44.204 44.204 0 00-.055 2.164c.031 20.348 14.035 38.008 33.84 42.672V311.21h-27.602c-22.054 0-40.398 17.7-40.398 39.758v5.804c-18.559 3.907-31.883 20.227-32 39.196v14a10.558 10.558 0 0010.398 10.242H345.06a10.558 10.558 0 0010.398-10.242v-14c-.117-18.969-13.441-35.29-32-39.196v-5.804c0-22.059-18.348-39.758-40.398-39.758h-27.602V113.129a44 44 0 0028.254-21.297l113.187 32.48L336.7 253.258a10 10 0 00-6.703 9.43c-.008 32.464 19.559 61.73 49.563 74.125 30.003 12.398 64.52 5.48 87.425-17.524a79.263 79.263 0 0023.926-56.601 10 10 0 00-7.289-9.618zM80.203 47.613l51.168 109.598H29.04zm0 179.797c-29.453.172-54.644-21.125-59.371-50.2h119.2c-5.09 29.052-30.333 50.235-59.829 50.2zm255.254 168.56v4.242h-180v-4.242c0-11.028 9.375-19.758 20.398-19.758H315.06c11.023 0 20.398 8.73 20.398 19.758zm-32-45v5.242h-116v-5.242c0-11.028 9.375-19.758 20.398-19.758h75.204c11.023 0 20.398 8.73 20.398 19.758zm-58-256.676a23.853 23.853 0 01-22.555-16.035A23.853 23.853 0 01258.32 50.36a23.852 23.852 0 0110.309 25.68 10.051 10.051 0 00-.563 1.952 23.872 23.872 0 01-22.609 16.301zm215.914 157.918H359.04l51.164-109.598zm-51.168 70.2c-29.453.171-54.644-21.126-59.371-50.2h119.2c-5.09 29.05-30.333 50.234-59.829 50.2zm0 0"/></svg><svg viewBox="0 0 512.076 512.076" id="call" xmlns="http://www.w3.org/2000/svg"><path d="M498.639 395.039l-103.646-69.12c-13.153-8.701-30.784-5.838-40.508 6.579l-30.191 38.818a12.903 12.903 0 01-16.546 3.482l-5.743-3.166c-19.038-10.377-42.726-23.296-90.453-71.04s-60.672-71.45-71.049-90.453l-3.149-5.743a12.92 12.92 0 013.413-16.606l38.792-30.182c12.412-9.725 15.279-27.351 6.588-40.508l-69.12-103.646C108.12.056 90.25-3.966 76.461 4.323L33.12 30.358A61.136 61.136 0 005.242 66.539c-15.607 56.866-3.866 155.008 140.706 299.597 115.004 114.995 200.619 145.92 259.465 145.92a151.181 151.181 0 0040.107-5.239 61.079 61.079 0 0036.181-27.878l26.061-43.315c8.301-13.792 4.281-31.673-9.123-40.585zm-5.581 31.829l-26.001 43.341a44.103 44.103 0 01-26.027 20.173c-52.497 14.413-144.213 2.475-283.008-136.32S7.29 123.559 21.703 71.054a44.17 44.17 0 0120.198-26.061l43.341-26.001c5.983-3.6 13.739-1.855 17.604 3.959l37.547 56.371 31.514 47.266c3.774 5.707 2.534 13.356-2.85 17.579l-38.801 30.182c-11.808 9.029-15.18 25.366-7.91 38.332l3.081 5.598c10.906 20.002 24.465 44.885 73.967 94.379 49.502 49.493 74.377 63.053 94.37 73.958l5.606 3.089c12.965 7.269 29.303 3.898 38.332-7.91l30.182-38.801c4.224-5.381 11.87-6.62 17.579-2.85l103.637 69.12c5.818 3.862 7.563 11.622 3.958 17.604zM290.161 85.39c80.081.089 144.977 64.986 145.067 145.067 0 4.713 3.82 8.533 8.533 8.533s8.533-3.82 8.533-8.533c-.099-89.503-72.63-162.035-162.133-162.133-4.713 0-8.533 3.82-8.533 8.533s3.82 8.533 8.533 8.533z"/><path d="M290.161 136.59c51.816.061 93.806 42.051 93.867 93.867a8.533 8.533 0 0017.066 0c-.071-61.238-49.696-110.863-110.933-110.933-4.713 0-8.533 3.82-8.533 8.533s3.82 8.533 8.533 8.533z"/><path d="M290.161 187.79c23.552.028 42.638 19.114 42.667 42.667a8.533 8.533 0 0017.066 0c-.038-32.974-26.759-59.696-59.733-59.733-4.713 0-8.533 3.82-8.533 8.533s3.82 8.533 8.533 8.533z"/></svg><svg viewBox="0 0 512.001 512.001" id="cancel" xmlns="http://www.w3.org/2000/svg"><path d="M284.286 256.002L506.143 34.144c7.811-7.811 7.811-20.475 0-28.285-7.811-7.81-20.475-7.811-28.285 0L256 227.717 34.143 5.859c-7.811-7.811-20.475-7.811-28.285 0-7.81 7.811-7.811 20.475 0 28.285l221.857 221.857L5.858 477.859c-7.811 7.811-7.811 20.475 0 28.285a19.938 19.938 0 0014.143 5.857 19.94 19.94 0 0014.143-5.857L256 284.287l221.857 221.857c3.905 3.905 9.024 5.857 14.143 5.857s10.237-1.952 14.143-5.857c7.811-7.811 7.811-20.475 0-28.285L284.286 256.002z"/></svg><svg fill="none" viewBox="0 0 20 20" id="check" xmlns="http://www.w3.org/2000/svg"><path d="M9.965 11.98l8.202-9.002 1.083.987-9.21 10.108L5.02 9.3l1.01-1.06 3.935 3.741zm8.716-5.24l-1.142 1.258c.165.637.254 1.304.254 1.992 0 4.362-3.549 7.91-7.91 7.91-4.362 0-7.91-3.548-7.91-7.91 0-4.361 3.548-7.91 7.91-7.91a7.88 7.88 0 015.266 2.013l.987-1.087A9.307 9.307 0 009.883.616a9.313 9.313 0 00-6.63 2.745 9.313 9.313 0 00-2.745 6.63c0 2.503.975 4.858 2.745 6.628a9.313 9.313 0 006.63 2.746 9.313 9.313 0 006.629-2.746 9.314 9.314 0 002.746-6.629 9.375 9.375 0 00-.577-3.25z" fill="#219653"/></svg><svg fill="none" viewBox="0 0 20 20" id="delivery" xmlns="http://www.w3.org/2000/svg"><path d="M16.667 11.011V4.583a.405.405 0 00-.066-.21l.006-.004-2.5-4.167A.417.417 0 0013.75 0H2.917a.417.417 0 00-.358.202L.06 4.37l.006.003a.405.405 0 00-.066.21V16.25c0 .23.186.417.417.417H11.01A4.588 4.588 0 0015.417 20 4.589 4.589 0 0020 15.417a4.588 4.588 0 00-3.333-4.406zM13.514.833l2 3.334h-4.756L10.092.833h3.422zm-6.09 0h1.818l.674 3.334H6.758L7.425.833zM10 5v1.667H6.665L6.66 5H10zM3.153.833h3.423l-.66 3.334H1.153l2-3.334zm7.701 15H.835V5h5v2.083c0 .23.186.417.416.417h4.167c.23 0 .416-.186.416-.417L10.827 5h5.006v5.854a4.59 4.59 0 00-.416-.02 4.588 4.588 0 00-4.584 4.583c0 .14.009.279.021.416zm4.563 3.334a3.754 3.754 0 01-3.75-3.75 3.754 3.754 0 013.75-3.75 3.754 3.754 0 013.75 3.75 3.754 3.754 0 01-3.75 3.75z" fill="#219653"/><path d="M17.205 13.872l-2.622 2.622-.955-.955a.416.416 0 10-.59.589l1.25 1.25a.415.415 0 00.59 0l2.917-2.917a.416.416 0 10-.59-.589z" fill="#219653"/></svg><svg aria-hidden="true" data-prefix="fab" data-icon="facebook-f" class="jsvg-inline--fa jfa-facebook-f jfa-w-10" viewBox="0 0 320 512" id="facebook" xmlns="http://www.w3.org/2000/svg"><path fill="currentColor" d="M279.14 288l14.22-92.66h-88.91v-60.13c0-25.35 12.42-50.06 52.24-50.06h40.42V6.26S260.43 0 225.36 0c-73.22 0-121.08 44.38-121.08 124.72v70.62H22.89V288h81.39v224h100.17V288z"/></svg><svg fill="none" viewBox="0 0 20 20" id="guarantee" xmlns="http://www.w3.org/2000/svg"><g clip-path="url(#kclip0)" fill="#219653"><path d="M18.496 5.427V5.41a20.807 20.807 0 01-.019-.622 2.12 2.12 0 00-1.996-2.076c-2.3-.128-4.078-.878-5.598-2.36L10.87.341a1.28 1.28 0 00-1.74 0l-.013.012C7.597 1.835 5.82 2.585 3.52 2.713A2.12 2.12 0 001.523 4.79c-.003.224-.009.427-.018.62v.037c-.045 2.345-.1 5.263.875 7.912a10.071 10.071 0 002.417 3.763c1.214 1.186 2.805 2.127 4.728 2.797A1.469 1.469 0 0010 20a1.438 1.438 0 00.476-.081c1.92-.672 3.51-1.613 4.723-2.798a10.088 10.088 0 002.417-3.765c.98-2.656.924-5.58.88-7.93zm-1.981 7.523c-1.03 2.792-3.132 4.71-6.426 5.861a.261.261 0 01-.177 0c-3.298-1.15-5.401-3.066-6.43-5.858-.9-2.441-.85-5.12-.804-7.483v-.014c.01-.203.015-.415.019-.65a.942.942 0 01.888-.921c1.3-.073 2.444-.324 3.495-.769a9.143 9.143 0 002.848-1.913.108.108 0 01.145 0 9.147 9.147 0 002.848 1.913c1.05.445 2.194.696 3.495.769.49.027.88.432.888.922.003.235.01.448.018.65.045 2.365.095 5.046-.807 7.493z"/><path d="M10 5.016A4.99 4.99 0 005.016 10 4.99 4.99 0 0010 14.985 4.99 4.99 0 0014.984 10 4.99 4.99 0 0010 5.016zm0 8.795a3.815 3.815 0 01-3.81-3.81C6.19 7.898 7.898 6.19 10 6.19S13.81 7.9 13.81 10A3.814 3.814 0 0110 13.811z"/><path d="M11.432 8.453l-2.315 2.315-.628-.628a.587.587 0 00-.83.83l1.044 1.043a.585.585 0 00.83 0l2.73-2.73a.587.587 0 00-.83-.83z"/></g><defs><clipPath id="kclip0"><path fill="#fff" d="M0 0h20v20H0z"/></clipPath></defs></svg><svg aria-hidden="true" data-prefix="fab" data-icon="instagram" class="lsvg-inline--fa lfa-instagram lfa-w-14" viewBox="0 0 448 512" id="instagram" xmlns="http://www.w3.org/2000/svg"><path fill="currentColor" d="M224.1 141c-63.6 0-114.9 51.3-114.9 114.9s51.3 114.9 114.9 114.9S339 319.5 339 255.9 287.7 141 224.1 141zm0 189.6c-41.1 0-74.7-33.5-74.7-74.7s33.5-74.7 74.7-74.7 74.7 33.5 74.7 74.7-33.6 74.7-74.7 74.7zm146.4-194.3c0 14.9-12 26.8-26.8 26.8-14.9 0-26.8-12-26.8-26.8s12-26.8 26.8-26.8 26.8 12 26.8 26.8zm76.1 27.2c-1.7-35.9-9.9-67.7-36.2-93.9-26.2-26.2-58-34.4-93.9-36.2-37-2.1-147.9-2.1-184.9 0-35.8 1.7-67.6 9.9-93.9 36.1s-34.4 58-36.2 93.9c-2.1 37-2.1 147.9 0 184.9 1.7 35.9 9.9 67.7 36.2 93.9s58 34.4 93.9 36.2c37 2.1 147.9 2.1 184.9 0 35.9-1.7 67.7-9.9 93.9-36.2 26.2-26.2 34.4-58 36.2-93.9 2.1-37 2.1-147.8 0-184.8zM398.8 388c-7.8 19.6-22.9 34.7-42.6 42.6-29.5 11.7-99.5 9-132.1 9s-102.7 2.6-132.1-9c-19.6-7.8-34.7-22.9-42.6-42.6-11.7-29.5-9-99.5-9-132.1s-2.6-102.7 9-132.1c7.8-19.6 22.9-34.7 42.6-42.6 29.5-11.7 99.5-9 132.1-9s102.7-2.6 132.1 9c19.6 7.8 34.7 22.9 42.6 42.6 11.7 29.5 9 99.5 9 132.1s2.7 102.7-9 132.1z"/></svg><svg viewBox="0 0 512 512" id="like" xmlns="http://www.w3.org/2000/svg"><path d="M471.67 79.174C446.515 53.701 411.829 39.672 374 39.672c-66.136 0-100.331 34.03-117.371 62.577-.212.354-.422.709-.629 1.063a118.18 118.18 0 00-.629-1.063C238.331 73.702 204.136 39.672 138 39.672c-37.829 0-72.515 14.029-97.67 39.503C13.946 105.894 0 142.469 0 184.946c0 90.198 80.181 150.001 150.922 202.764 35.249 26.29 68.543 51.123 89.498 77.158 3.796 4.717 9.525 7.46 15.58 7.46s11.784-2.743 15.581-7.458c10.778-13.392 25.76-27.631 47.152-44.812 8.611-6.917 9.985-19.506 3.068-28.118-6.916-8.61-19.505-9.986-28.117-3.069-15.092 12.122-27.436 23.085-37.675 33.503-22.608-23.047-51.223-44.39-81.172-66.727C108.547 306.204 40 255.077 40 184.946c0-61.984 40.299-105.274 98-105.274 37.519 0 65.223 14.115 82.34 41.952 13.59 22.097 15.704 45.098 15.718 45.24.802 10.419 9.488 18.508 19.937 18.508 10.451 0 19.136-8.001 19.938-18.42.021-.23 2.135-23.231 15.725-45.328C308.777 93.787 336.481 79.672 374 79.672c57.701 0 98 43.29 98 105.274 0 58.038-47.252 103.036-98.315 143.017-8.696 6.809-10.227 19.38-3.417 28.077 6.807 8.696 19.379 10.227 28.077 3.417 24.29-19.019 55.077-44.72 77.723-74.901C500.246 252.333 512 219.75 512 184.946c0-42.477-13.946-79.052-40.33-105.772z"/></svg><svg viewBox="0 0 504 504" id="maestro" xmlns="http://www.w3.org/2000/svg"><path d="M252 364c30.4-27.2 49.6-67.2 49.6-112s-19.2-84-49.6-112c-26.4-24-62.4-39.2-100.8-39.2C68 100.8 0 168.8 0 252s68 150.4 151.2 150.4c38.4.8 74.4-14.4 100.8-38.4z" fill="#07a9e2"/><path d="M0 252c0 83.2 68 150.4 151.2 150.4 39.2 0 74.4-14.4 100.8-39.2 30.4-27.2 49.6-67.2 49.6-112S282.4 168 252 140c-26.4-24-62.4-39.2-100.8-39.2" fill="#009ddd"/><path d="M252 140c-26.4-24-62.4-39.2-100.8-39.2H144C96.8 135.2 66.4 190.4 66.4 252s30.4 116.8 76.8 150.4h7.2c39.2 0 74.4-14.4 100.8-39.2 30.4-27.2 49.6-67.2 49.6-112S282.4 168 252 140z" fill="#0284cc"/><path d="M353.6 100.8c-39.2 0-74.4 14.4-101.6 39.2-5.6 4.8-10.4 10.4-15.2 16h30.4c4 4.8 8 10.4 11.2 16h-53.6c-3.2 5.6-6.4 10.4-8.8 16h71.2c2.4 5.6 4.8 10.4 6.4 16h-83.2c-1.6 5.6-3.2 10.4-4.8 16h92.8c2.4 10.4 3.2 20.8 3.2 32 0 16.8-2.4 32.8-8 48h-83.2c1.6 5.6 4 10.4 6.4 16H288c-2.4 5.6-5.6 11.2-8.8 16h-53.6c3.2 5.6 7.2 11.2 11.2 16h30.4c-4.8 5.6-9.6 11.2-15.2 16 27.2 24 62.4 39.2 101.6 39.2 83.2 0 150.4-67.2 150.4-150.4 0-84-67.2-152-150.4-152z" fill="#ff2957"/><path d="M353.6 100.8c-39.2 0-74.4 14.4-101.6 39.2-5.6 4.8-10.4 10.4-15.2 16h30.4c4 4.8 8 10.4 11.2 16h-53.6c-3.2 5.6-6.4 10.4-8.8 16h71.2c2.4 5.6 4.8 10.4 6.4 16h-83.2c-1.6 5.6-3.2 10.4-4.8 16h92.8c2.4 10.4 3.2 20.8 3.2 32 0 16.8-2.4 32.8-8 48h-83.2c1.6 5.6 4 10.4 6.4 16H288c-2.4 5.6-5.6 11.2-8.8 16h-53.6c3.2 5.6 7.2 11.2 11.2 16h30.4c-4.8 5.6-9.6 11.2-15.2 16 27.2 24 62.4 39.2 101.6 39.2 83.2 0 150.4-67.2 150.4-150.4" fill="#ed1c2e"/><path d="M252 364c30.4-27.2 49.6-67.2 49.6-112s-19.2-84-49.6-112v224z" fill="#0466b5"/><path d="M452 284.8c0-2.4 2.4-4.8 4.8-4.8s4.8 2.4 4.8 4.8-2.4 4.8-4.8 4.8-4.8-2.4-4.8-4.8zm4.8 4c2.4 0 3.2-1.6 3.2-4s-1.6-3.2-3.2-3.2c-2.4 0-4 1.6-4 3.2s2.4 4 4 4zm0-2.4h-.8v-4h2.4l.8.8c0 .8 0 .8-.8.8l.8 1.6h-.8l-.8-1.6h-.8v2.4zm0-2.4h.8v-.8h-.8v.8z" fill="#fff"/><path d="M252 140c-5.6 4.8-10.4 10.4-15.2 16h30.4c4 4.8 8 10.4 11.2 16h-53.6c-3.2 5.6-6.4 10.4-8.8 16h71.2c2.4 5.6 4.8 10.4 6.4 16h-83.2c-1.6 5.6-3.2 10.4-4.8 16h92.8c2.4 10.4 3.2 20.8 3.2 32 0 16.8-2.4 32.8-8 48h-83.2c1.6 5.6 4 10.4 6.4 16H288c-2.4 5.6-5.6 11.2-8.8 16h-53.6c3.2 5.6 7.2 11.2 11.2 16h30.4c-4.8 5.6-9.6 11.2-15.2 16 27.2 24 62.4 39.2 101.6 39.2h7.2c46.4-33.6 76.8-88.8 76.8-150.4S407.2 136 360.8 102.4h-7.2C314.4 100.8 279.2 116 252 140z" fill="#d1094b"/><path fill="#fff" d="M132 289.6h-19.2l11.2-58.4-25.6 58.4H81.6l-3.2-58.4-11.2 58.4H50.4l14.4-76.8h29.6l1.6 48 20.8-48h30.4z"/><path d="M113.6 256l11.2-24.8-8.8 46.4c.8 4 1.6 8.8 3.2 12.8H132l14.4-76.8h-28c-3.2 12-5.6 25.6-5.6 39.2.8.8.8 1.6.8 3.2zm228 32.8c-5.6 1.6-8.8 2.4-13.6 2.4-9.6 0-14.4-4.8-14.4-13.6 0-1.6 0-3.2.8-5.6l.8-6.4.8-4.8 8.8-47.2h18.4l-2.4 14.4h9.6l-2.4 14.4h-9.6l-4.8 25.6c0 .8-.8 2.4-.8 2.4 0 3.2 2.4 4.8 6.4 4.8 2.4 0 4 0 4.8-.8l-2.4 14.4zm55.2-60.8c-1.6-.8-1.6-.8-2.4-.8s-1.6 0-1.6-.8h-2.4c-6.4 0-10.4 2.4-16 10.4l1.6-9.6h-16.8L348 289.6h19.2c6.4-38.4 9.6-44.8 18.4-44.8h2.4l2.4.8 6.4-17.6zm-129.6 19.2c0 8 4.8 13.6 14.4 16.8 8 3.2 8.8 4 8.8 7.2 0 4-3.2 5.6-11.2 5.6-5.6 0-11.2-.8-16.8-2.4l-2.4 14.4h.8l3.2.8h4.8c4.8.8 8 .8 10.4.8 20 0 29.6-6.4 29.6-20.8 0-8.8-4-13.6-13.6-17.6-8-3.2-8.8-4-8.8-6.4 0-3.2 3.2-4.8 9.6-4.8 3.2 0 8.8 0 13.6.8l2.4-14.4c-4.8-.8-12-.8-16.8-.8-20.8 0-28 9.6-28 20.8zm-74.4 42.4h-15.2v-6.4c-4.8 4.8-11.2 7.2-20 7.2-10.4 0-16.8-7.2-16.8-16.8 0-15.2 12-24 32.8-24h8c.8-2.4.8-3.2.8-4 0-4-3.2-5.6-12-5.6-5.6 0-11.2.8-15.2 1.6l-2.4.8h-1.6l2.4-13.6c9.6-2.4 15.2-3.2 22.4-3.2 16 0 24.8 6.4 24.8 18.4 0 3.2 0 5.6-1.6 12.8l-4 22.4-.8 4-.8 3.2v2.4l-.8.8zm-13.6-28h-4c-10.4 0-16 3.2-16 9.6 0 4 2.4 6.4 6.4 6.4 8 0 13.6-6.4 13.6-16zm75.2 26.4c-6.4 1.6-12.8 2.4-19.2 2.4-20.8 0-32-9.6-32-28 0-21.6 13.6-36.8 32.8-36.8 15.2 0 24.8 8.8 24.8 22.4 0 4.8-.8 8.8-2.4 15.2h-37.6v2.4c0 7.2 5.6 11.2 16 11.2 7.2 0 12.8-.8 19.2-4l-1.6 15.2zm-9.6-36.8V248c0-4.8-3.2-8-8.8-8s-10.4 4-12 11.2h20.8z" fill="#dce5e5"/><g fill="#fff"><path d="M455.2 261.6c-3.2 20.8-17.6 29.6-36.8 29.6-20.8 0-29.6-12.8-29.6-28.8 0-21.6 14.4-36.8 36.8-36.8 19.2 0 29.6 12.8 29.6 28v8zm-20-8c0-6.4-2.4-12-10.4-12-9.6 0-15.2 11.2-15.2 21.6 0 8 4 13.6 10.4 13.6 4 0 12.8-5.6 14.4-15.2.8-3.2.8-5.6.8-8z"/><path d="M389.6 269.6c.8-5.6 1.6-12 1.6-17.6v-1.6c-.8 4-1.6 8-1.6 12.8-.8 1.6-.8 4 0 6.4z"/></g></svg><svg viewBox="0 0 504 504" id="mastercard" xmlns="http://www.w3.org/2000/svg"><path d="M504 252c0 83.2-67.2 151.2-151.2 151.2-83.2 0-151.2-68-151.2-151.2 0-83.2 67.2-151.2 150.4-151.2 84.8 0 152 68 152 151.2z" fill="#ffb600"/><path d="M352.8 100.8c83.2 0 151.2 68 151.2 151.2 0 83.2-67.2 151.2-151.2 151.2-83.2 0-151.2-68-151.2-151.2" fill="#f7981d"/><path d="M352.8 100.8c83.2 0 151.2 68 151.2 151.2 0 83.2-67.2 151.2-151.2 151.2" fill="#ff8500"/><path d="M149.6 100.8C67.2 101.6 0 168.8 0 252s67.2 151.2 151.2 151.2c39.2 0 74.4-15.2 101.6-39.2 5.6-4.8 10.4-10.4 15.2-16h-31.2c-4-4.8-8-10.4-11.2-15.2h53.6c3.2-4.8 6.4-10.4 8.8-16h-71.2c-2.4-4.8-4.8-10.4-6.4-16h83.2c4.8-15.2 8-31.2 8-48 0-11.2-1.6-21.6-3.2-32h-92.8c.8-5.6 2.4-10.4 4-16h83.2c-1.6-5.6-4-11.2-6.4-16H216c2.4-5.6 5.6-10.4 8.8-16h53.6c-3.2-5.6-7.2-11.2-12-16h-29.6c4.8-5.6 9.6-10.4 15.2-15.2-26.4-24.8-62.4-39.2-101.6-39.2 0-1.6 0-1.6-.8-1.6z" fill="#ff5050"/><path d="M0 252c0 83.2 67.2 151.2 151.2 151.2 39.2 0 74.4-15.2 101.6-39.2 5.6-4.8 10.4-10.4 15.2-16h-31.2c-4-4.8-8-10.4-11.2-15.2h53.6c3.2-4.8 6.4-10.4 8.8-16h-71.2c-2.4-4.8-4.8-10.4-6.4-16h83.2c4.8-15.2 8-31.2 8-48 0-11.2-1.6-21.6-3.2-32h-92.8c.8-5.6 2.4-10.4 4-16h83.2c-1.6-5.6-4-11.2-6.4-16H216c2.4-5.6 5.6-10.4 8.8-16h53.6c-3.2-5.6-7.2-11.2-12-16h-29.6c4.8-5.6 9.6-10.4 15.2-15.2-26.4-24.8-62.4-39.2-101.6-39.2h-.8" fill="#e52836"/><path d="M151.2 403.2c39.2 0 74.4-15.2 101.6-39.2 5.6-4.8 10.4-10.4 15.2-16h-31.2c-4-4.8-8-10.4-11.2-15.2h53.6c3.2-4.8 6.4-10.4 8.8-16h-71.2c-2.4-4.8-4.8-10.4-6.4-16h83.2c4.8-15.2 8-31.2 8-48 0-11.2-1.6-21.6-3.2-32h-92.8c.8-5.6 2.4-10.4 4-16h83.2c-1.6-5.6-4-11.2-6.4-16H216c2.4-5.6 5.6-10.4 8.8-16h53.6c-3.2-5.6-7.2-11.2-12-16h-29.6c4.8-5.6 9.6-10.4 15.2-15.2-26.4-24.8-62.4-39.2-101.6-39.2h-.8" fill="#cb2026"/><path d="M204.8 290.4l2.4-13.6c-.8 0-2.4.8-4 .8-5.6 0-6.4-3.2-5.6-4.8l4.8-28h8.8l2.4-15.2h-8l1.6-9.6h-16s-9.6 52.8-9.6 59.2c0 9.6 5.6 13.6 12.8 13.6 4.8 0 8.8-1.6 10.4-2.4zm5.6-25.6c0 22.4 15.2 28 28 28 12 0 16.8-2.4 16.8-2.4l3.2-15.2s-8.8 4-16.8 4c-17.6 0-14.4-12.8-14.4-12.8H260s2.4-10.4 2.4-14.4c0-10.4-5.6-23.2-23.2-23.2-16.8-1.6-28.8 16-28.8 36zm28-23.2c8.8 0 7.2 10.4 7.2 11.2H228c0-.8 1.6-11.2 10.4-11.2zM340 290.4l3.2-17.6s-8 4-13.6 4c-11.2 0-16-8.8-16-18.4 0-19.2 9.6-29.6 20.8-29.6 8 0 14.4 4.8 14.4 4.8l2.4-16.8s-9.6-4-18.4-4c-18.4 0-36.8 16-36.8 46.4 0 20 9.6 33.6 28.8 33.6 6.4 0 15.2-2.4 15.2-2.4zm-223.2-63.2c-11.2 0-19.2 3.2-19.2 3.2L95.2 244s7.2-3.2 17.6-3.2c5.6 0 10.4.8 10.4 5.6 0 3.2-.8 4-.8 4h-7.2c-13.6 0-28.8 5.6-28.8 24 0 14.4 9.6 17.6 15.2 17.6 11.2 0 16-7.2 16.8-7.2l-.8 6.4H132l6.4-44c0-19.2-16-20-21.6-20zm3.2 36c0 2.4-1.6 15.2-11.2 15.2-4.8 0-6.4-4-6.4-6.4 0-4 2.4-9.6 14.4-9.6 2.4.8 3.2.8 3.2.8zm33.6 28.8c4 0 24 .8 24-20.8 0-20-19.2-16-19.2-24 0-4 3.2-5.6 8.8-5.6 2.4 0 11.2.8 11.2.8l2.4-14.4s-5.6-1.6-15.2-1.6c-12 0-24 4.8-24 20.8 0 18.4 20 16.8 20 24 0 4.8-5.6 5.6-9.6 5.6-7.2 0-14.4-2.4-14.4-2.4l-2.4 14.4c.8 1.6 4.8 3.2 18.4 3.2zm319.2-77.6l-3.2 21.6s-6.4-8-15.2-8c-14.4 0-27.2 17.6-27.2 38.4 0 12.8 6.4 26.4 20 26.4 9.6 0 15.2-6.4 15.2-6.4l-.8 5.6h16l12-76.8-16.8-.8zm-7.2 42.4c0 8.8-4 20-12.8 20-5.6 0-8.8-4.8-8.8-12.8 0-12.8 5.6-20.8 12.8-20.8 5.6 0 8.8 4 8.8 13.6zm-436 34.4l9.6-57.6 1.6 57.6H52l20.8-57.6-8.8 57.6h16.8l12.8-76.8H67.2l-16 47.2-.8-47.2H27.2l-12.8 76.8h15.2zm248 0c4.8-26.4 5.6-48 16.8-44 1.6-10.4 4-14.4 5.6-18.4h-3.2c-7.2 0-12.8 9.6-12.8 9.6l1.6-8.8h-15.2L260 292h17.6v-.8zm99.2-64c-11.2 0-19.2 3.2-19.2 3.2l-2.4 13.6s7.2-3.2 17.6-3.2c5.6 0 10.4.8 10.4 5.6 0 3.2-.8 4-.8 4h-7.2c-13.6 0-28.8 5.6-28.8 24 0 14.4 9.6 17.6 15.2 17.6 11.2 0 16-7.2 16.8-7.2l-.8 6.4H392l6.4-44c.8-19.2-16-20-21.6-20zm4 36c0 2.4-1.6 15.2-11.2 15.2-4.8 0-6.4-4-6.4-6.4 0-4 2.4-9.6 14.4-9.6 2.4.8 2.4.8 3.2.8zm31.2 28c4.8-26.4 5.6-48 16.8-44 1.6-10.4 4-14.4 5.6-18.4h-3.2c-7.2 0-12.8 9.6-12.8 9.6l1.6-8.8h-15.2L394.4 292H412v-.8z" fill="#fff"/><path d="M180 279.2c0 9.6 5.6 13.6 12.8 13.6 5.6 0 10.4-1.6 12-2.4l2.4-13.6c-.8 0-2.4.8-4 .8-5.6 0-6.4-3.2-5.6-4.8l4.8-28h8.8l2.4-15.2h-8l1.6-9.6m11.2 44.8c0 22.4 7.2 28 20 28 12 0 16.8-2.4 16.8-2.4l3.2-15.2s-8.8 4-16.8 4c-17.6 0-14.4-12.8-14.4-12.8H260s2.4-10.4 2.4-14.4c0-10.4-5.6-23.2-23.2-23.2-16.8-1.6-20.8 16-20.8 36zm20-23.2c8.8 0 10.4 10.4 10.4 11.2H228c0-.8 1.6-11.2 10.4-11.2zM340 290.4l3.2-17.6s-8 4-13.6 4c-11.2 0-16-8.8-16-18.4 0-19.2 9.6-29.6 20.8-29.6 8 0 14.4 4.8 14.4 4.8l2.4-16.8s-9.6-4-18.4-4c-18.4 0-28.8 16-28.8 46.4 0 20 1.6 33.6 20.8 33.6 6.4 0 15.2-2.4 15.2-2.4zM95.2 244.8s7.2-3.2 17.6-3.2c5.6 0 10.4.8 10.4 5.6 0 3.2-.8 4-.8 4h-7.2c-13.6 0-28.8 5.6-28.8 24 0 14.4 9.6 17.6 15.2 17.6 11.2 0 16-7.2 16.8-7.2l-.8 6.4H132l6.4-44c0-18.4-16-19.2-22.4-19.2m12 34.4c0 2.4-9.6 15.2-19.2 15.2-4.8 0-6.4-4-6.4-6.4 0-4 2.4-9.6 14.4-9.6 2.4.8 11.2.8 11.2.8zm8 27.2s4.8 1.6 18.4 1.6c4 0 24 .8 24-20.8 0-20-19.2-16-19.2-24 0-4 3.2-5.6 8.8-5.6 2.4 0 11.2.8 11.2.8l2.4-14.4s-5.6-1.6-15.2-1.6c-12 0-16 4.8-16 20.8 0 18.4 12 16.8 12 24 0 4.8-5.6 5.6-9.6 5.6M469.6 236s-6.4-8-15.2-8c-14.4 0-19.2 17.6-19.2 38.4 0 12.8-1.6 26.4 12 26.4 9.6 0 15.2-6.4 15.2-6.4l-.8 5.6h16l12-76.8m-20.8 41.6c0 8.8-7.2 20-16 20-5.6 0-8.8-4.8-8.8-12.8 0-12.8 5.6-20.8 12.8-20.8 5.6 0 12 4 12 13.6zM29.6 291.2l9.6-57.6 1.6 57.6H52l20.8-57.6-8.8 57.6h16.8l12.8-76.8h-20l-22.4 47.2-.8-47.2h-8.8l-27.2 76.8h15.2zm231.2 0h16.8c4.8-26.4 5.6-48 16.8-44 1.6-10.4 4-14.4 5.6-18.4h-3.2c-7.2 0-12.8 9.6-12.8 9.6l1.6-8.8m69.6 15.2s7.2-3.2 17.6-3.2c5.6 0 10.4.8 10.4 5.6 0 3.2-.8 4-.8 4h-7.2c-13.6 0-28.8 5.6-28.8 24 0 14.4 9.6 17.6 15.2 17.6 11.2 0 16-7.2 16.8-7.2l-.8 6.4H392l6.4-44c0-18.4-16-19.2-22.4-19.2m12 34.4c0 2.4-9.6 15.2-19.2 15.2-4.8 0-6.4-4-6.4-6.4 0-4 2.4-9.6 14.4-9.6 3.2.8 11.2.8 11.2.8zm7.2 28H412c4.8-26.4 5.6-48 16.8-44 1.6-10.4 4-14.4 5.6-18.4h-3.2c-7.2 0-12.8 9.6-12.8 9.6l1.6-8.8" fill="#dce5e5"/></svg><svg fill="none" viewBox="0 0 84 30" id="nova-poshta" xmlns="http://www.w3.org/2000/svg"><g opacity=".5" fill-rule="evenodd" clip-rule="evenodd" fill="#fff" clip-path="url(#pclip0)"><path d="M36.649 5.09h1.76c.642 0 .966.317.966 1.035V8.67h3.45V6.125c0-.718.318-1.036 1.041-1.036h1.684v1.672h-.719l-.082.082v7.162h-1.925v-3.58h-3.45v3.58H37.45V6.843s0-.082-.082-.082h-.72V5.09zm13.952-.16l.044.005V6.77l-.044-.01c-1.442 0-2.566 1.196-2.566 2.709 0 1.59 1.124 2.862 2.566 2.862l.044-.01v1.837l-.044.005c-2.566 0-4.65-2.068-4.65-4.694 0-2.55 2.084-4.54 4.65-4.54z"/><path d="M50.645 4.935l.892.087c2.118.414 3.715 2.217 3.715 4.448 0 2.294-1.597 4.168-3.715 4.597l-.892.092v-1.836l.98-.212c.945-.434 1.625-1.45 1.625-2.641 0-1.138-.68-2.092-1.626-2.497l-.98-.202V4.935zm5.007.155h3.971v1.67h-1.245v1.832h1.245v1.59h-1.245v1.99c0 .082 0 .082.082.082h1.163v1.75h-2.205c-.642 0-.96-.318-.96-1.036V6.76h-.806V5.09z"/><path d="M59.623 5.09h.039c1.765 0 2.807.953 2.807 2.39 0 .872-.4 1.43-.8 1.83.723.319 1.2 1.114 1.2 1.986 0 1.673-1.282 2.709-3.125 2.709h-.121v-1.75h.198c.642 0 1.047-.4 1.047-1.036s-.406-1.036-1.047-1.036h-.198v-1.59h.039c.564 0 .883-.4.883-.954 0-.56-.319-.878-.883-.878h-.039V5.09zm6.937 0h.96v2.549a1.525 1.525 0 00-.159.636l-.641 1.831h.8v1.668h-1.278l-.564 1.436c-.16.554-.478.795-1.12.795h-1.206v-1.75h.4c.165 0 .165 0 .242-.082L66.56 5.09zm.96 0h.965l2.567 7.084c.077.081.077.081.236.081h.324v1.75h-1.125c-.641 0-.96-.241-1.124-.877l-.56-1.354H67.52v-1.668h.801l-.637-1.831c0-.241-.082-.477-.164-.636v-2.55zM36.649 16.55h6.976c.642 0 1.042.317 1.042 1.036v6.048c0 .077 0 .077.082.077h.642v1.754h-1.684c-.724 0-1.042-.318-1.042-1.036v-6.125s0-.082-.082-.082h-3.208v7.243H37.45v-7.243h-.801v-1.673zm13.793-.16l.039.005v1.836l-.039-.01c-1.447 0-2.566 1.196-2.566 2.71 0 1.59 1.119 2.862 2.566 2.862l.039-.01v1.836l-.039.005c-2.566 0-4.574-2.072-4.574-4.694 0-2.55 2.008-4.54 4.574-4.54z"/><path d="M50.48 16.395l.922.087c2.157.414 3.69 2.217 3.69 4.448 0 2.294-1.533 4.169-3.69 4.598l-.922.091v-1.836l1.018-.212c.96-.434 1.593-1.45 1.593-2.64 0-1.138-.633-2.093-1.593-2.497l-1.017-.203v-1.836zm5.013.155h1.766c.642 0 .96.317.96 1.036v6.048c0 .077 0 .077.082.077h2.325v-7.162h1.925v7.162h2.326c.082 0 .082 0 .082-.077v-6.048c0-.718.318-1.037.96-1.037h1.766v1.673h-.724c-.082 0-.082.082-.082.082v6.125c0 .718-.319 1.036-.96 1.036h-8.583c-.719 0-1.042-.318-1.042-1.036v-6.125s0-.082-.077-.082h-.724v-1.673zm13.711 0h6.016c.724 0 .965.317.965.954v1.513h-1.766v-.713c0-.082 0-.082-.082-.082h-1.12v7.243h-1.929v-7.243h-1.12c-.081 0-.081 0-.081.082v.713H68.32v-1.513c0-.637.241-.955.883-.955zm9.466 0h.96v2.549c-.082.159-.16.395-.16.636l-.64 1.831h.8v1.668h-1.284l-.559 1.354c-.16.636-.482.877-1.124.877h-1.201v-1.754h.4c.164 0 .164 0 .241-.077l2.567-7.085z"/><path d="M79.63 16.55h.96l2.571 7.084c.077.077.077.077.241.077h.319v1.754h-1.124c-.642 0-.96-.24-1.124-.877l-.56-1.354H79.63v-1.668h.8l-.641-1.831c0-.241-.077-.477-.16-.636v-2.55zM24.289 8.882c.091-.029.212.029.333.188l5.451 5.33c.319.318.319.8 0 1.036l-5.451 5.412c-.121.16-.242.198-.333.15-.092-.049-.15-.188-.15-.39V9.227c0-.197.058-.317.15-.346zM14.963 0h.386l.371.154 5.611 5.571c.241.318.16.56-.241.56h-2.325c-.4 0-.72.317-.72.717v4.135c0 .4-.323.718-.805.718h-4.086a.718.718 0 01-.724-.718V7.002c0-.4-.318-.718-.724-.718H9.222c-.4 0-.483-.24-.241-.559l5.615-5.57.367-.155zm-8.79 8.762c.101.048.164.187.164.39v11.614c0 .203-.063.323-.164.362-.097.038-.237 0-.4-.12L.238 15.435c-.319-.236-.319-.718 0-1.036l5.533-5.49c.164-.158.304-.197.4-.148zm6.98 9.142h4.087c.482 0 .806.318.806.718v4.376c0 .477.318.795.718.795h2.166c.401 0 .56.236.242.477l-5.452 5.489a.807.807 0 01-.564.241.797.797 0 01-.56-.241l-5.452-5.49c-.323-.24-.164-.476.237-.476h2.325c.405 0 .724-.318.724-.795v-4.376c0-.4.323-.718.723-.718z"/></g><defs><clipPath id="pclip0"><path fill="#fff" d="M0 0h83.721v30H0z"/></clipPath></defs></svg><svg fill="none" viewBox="0 0 20 20" id="payment" xmlns="http://www.w3.org/2000/svg"><g clip-path="url(#qclip0)" fill="#219653"><path d="M19 13.205h-1.92l-.539 4.064a1.008 1.008 0 01-1.125.86L.87 16.2a1 1 0 01-.86-1.125l1.228-9.257a1 1 0 011.121-.863l.964.127V2.864a1 1 0 011-1H19a1 1 0 011 1v9.34a1 1 0 01-1 1zm-2.593 0h-2.604l2.56.339.044-.34zM.67 15.165a.327.327 0 00.066.244.334.334 0 00.222.13l14.545 1.928a.338.338 0 00.377-.287l.132-.993L.802 14.17l-.132.995zm2.652-9.41l-1.05-.138a.334.334 0 00-.374.287l-.744 5.623 2.168.286V5.755zm.044 6.737l-2.301-.304-.175 1.32 15.21 2.017.1-.764.074-.556-7.548-1H4.323a1 1 0 01-.957-.713zm15.967-9.628a.334.334 0 00-.334-.333H4.323a.334.334 0 00-.334.333v9.33l.002.01c0 .184.15.333.333.333H19a.334.334 0 00.334-.333v-9.34z"/><path d="M14.645 8.194c.134.099.253.217.352.351a1.665 1.665 0 111.334 2.658 1.662 1.662 0 01-1.334-.677 1.668 1.668 0 11-.352-2.332zm1.686 2.342a1 1 0 100-2.001 1 1 0 000 2.001zm-2.669 0a1 1 0 100-2.001 1 1 0 000 2.001zm-7.672.334h-.666v-.667h.667v.667zm4.67 0H6.659v-.667h4.003v.667zm0-1.334H5.325v-.668h5.337v.668zm7.005-3.003H5.657a.334.334 0 01-.333-.333V4.199c0-.185.149-.334.333-.334h12.008c.184 0 .334.15.334.334v2c0 .185-.15.334-.334.334zm-.333-2H5.99v1.333h11.34V4.532z"/></g><defs><clipPath id="qclip0"><path fill="#fff" transform="matrix(1 0 0 -1 0 20)" d="M0 0h20v20H0z"/></clipPath></defs></svg><svg viewBox="0 0 504 504" id="paypal" xmlns="http://www.w3.org/2000/svg"><path d="M389.6 221.2h-27.2c-1.6 0-3.2 1.6-4 3.2l-11.2 70.4c0 1.6.8 2.4 2.4 2.4H364c1.6 0 2.4-.8 2.4-2.4l3.2-20c0-1.6 1.6-3.2 4-3.2h8.8c18.4 0 28.8-8.8 31.2-26.4 1.6-7.2 0-13.6-3.2-17.6-4.8-4-12-6.4-20.8-6.4m3.2 26.4c-1.6 9.6-8.8 9.6-16 9.6H372l3.2-18.4c0-.8.8-1.6 2.4-1.6h1.6c4.8 0 9.6 0 12 3.2 1.6.8 1.6 3.2 1.6 7.2" fill="#139ad6"/><path d="M193.6 221.2h-27.2c-1.6 0-3.2 1.6-4 3.2l-11.2 70.4c0 1.6.8 2.4 2.4 2.4h12.8c1.6 0 3.2-1.6 4-3.2l3.2-19.2c0-1.6 1.6-3.2 4-3.2h8.8c18.4 0 28.8-8.8 31.2-26.4 1.6-7.2 0-13.6-3.2-17.6-4.8-4-11.2-6.4-20.8-6.4m3.2 26.4c-1.6 9.6-8.8 9.6-16 9.6h-4l3.2-18.4c0-.8.8-1.6 2.4-1.6h1.6c4.8 0 9.6 0 12 3.2.8.8 1.6 3.2.8 7.2m79.2-.8h-12.8c-.8 0-2.4.8-2.4 1.6l-.8 4-.8-1.6c-3.2-4-8.8-5.6-15.2-5.6-14.4 0-27.2 11.2-29.6 26.4-1.6 8 .8 15.2 4.8 20s9.6 6.4 16.8 6.4c12 0 18.4-7.2 18.4-7.2l-.8 4c0 1.6.8 2.4 2.4 2.4h12c1.6 0 3.2-1.6 4-3.2l7.2-44.8c-.8-.8-2.4-2.4-3.2-2.4m-18.4 25.6c-1.6 7.2-7.2 12.8-15.2 12.8-4 0-7.2-1.6-8.8-3.2-1.6-2.4-2.4-5.6-2.4-9.6.8-7.2 7.2-12.8 14.4-12.8 4 0 6.4 1.6 8.8 3.2 2.4 2.4 3.2 6.4 3.2 9.6" fill="#263b80"/><path d="M471.2 246.8h-12.8c-.8 0-2.4.8-2.4 1.6l-.8 4-.8-1.6c-3.2-4-8.8-5.6-15.2-5.6-14.4 0-27.2 11.2-29.6 26.4-1.6 8 .8 15.2 4.8 20s9.6 6.4 16.8 6.4c12 0 18.4-7.2 18.4-7.2l-.8 4c0 1.6.8 2.4 2.4 2.4h12c1.6 0 3.2-1.6 4-3.2l7.2-44.8c-.8-.8-1.6-2.4-3.2-2.4m-18.4 25.6c-1.6 7.2-7.2 12.8-15.2 12.8-4 0-7.2-1.6-8.8-3.2-1.6-2.4-2.4-5.6-2.4-9.6.8-7.2 7.2-12.8 14.4-12.8 4 0 6.4 1.6 8.8 3.2 3.2 2.4 4 6.4 3.2 9.6" fill="#139ad6"/><path d="M345.6 246.8H332c-1.6 0-2.4.8-3.2 1.6l-17.6 27.2-8-25.6c-.8-1.6-1.6-2.4-4-2.4h-12.8c-1.6 0-2.4 1.6-2.4 3.2l14.4 42.4-13.6 19.2c-.8 1.6 0 4 1.6 4h12.8c1.6 0 2.4-.8 3.2-1.6l44-63.2c2.4-2.4.8-4.8-.8-4.8" fill="#263b80"/><path d="M486.4 223.6l-11.2 72c0 1.6.8 2.4 2.4 2.4h11.2c1.6 0 3.2-1.6 4-3.2l11.2-70.4c0-1.6-.8-2.4-2.4-2.4h-12.8c-.8-.8-1.6 0-2.4 1.6" fill="#139ad6"/><path d="M92 197.2c-5.6-6.4-16-9.6-30.4-9.6h-40c-2.4 0-4.8 2.4-5.6 4.8L0 297.2c0 2.4 1.6 4 3.2 4H28l6.4-39.2v1.6c.8-2.4 3.2-4.8 5.6-4.8h12c23.2 0 40.8-9.6 46.4-36v-2.4c-.8 0-.8 0 0 0 .8-10.4-.8-16.8-6.4-23.2" fill="#263b80"/><path d="M97.6 220.4v2.4c-5.6 27.2-23.2 36-46.4 36h-12c-2.4 0-4.8 2.4-5.6 4.8l-8 48.8c0 1.6.8 3.2 3.2 3.2h20.8c2.4 0 4.8-1.6 4.8-4v-.8l4-24.8v-1.6c0-2.4 2.4-4 4.8-4h3.2c20 0 36-8 40-32 1.6-9.6.8-18.4-4-24-.8-1.6-2.4-3.2-4.8-4" fill="#139ad6"/><path d="M92 218c-.8 0-1.6-.8-2.4-.8s-1.6 0-2.4-.8c-3.2-.8-6.4-.8-10.4-.8H45.6c-.8 0-1.6 0-2.4.8-1.6.8-2.4 2.4-2.4 4L34.4 262v1.6c.8-2.4 3.2-4.8 5.6-4.8h12c23.2 0 40.8-9.6 46.4-36 0-.8 0-1.6.8-2.4-1.6-.8-2.4-1.6-4-1.6-2.4-.8-2.4-.8-3.2-.8" fill="#232c65"/></svg><svg viewBox="0 0 512 512" id="shopping-cart" xmlns="http://www.w3.org/2000/svg"><path d="M509.867 89.6c-2.133-2.133-4.267-4.267-8.533-4.267H96L85.333 29.867c0-4.267-6.4-8.533-10.667-8.533h-64C4.267 21.333 0 25.6 0 32s4.267 10.667 10.667 10.667h55.467l51.2 260.267c6.4 34.133 38.4 59.733 72.533 59.733H435.2c6.4 0 10.667-4.267 10.667-10.667 0-6.4-4.267-10.667-10.667-10.667H192c-17.067 0-34.133-8.533-42.667-23.467L460.8 275.2c4.267 0 8.533-4.267 8.533-8.533L512 96s0-4.267-2.133-6.4zM450.133 256l-311.467 40.533-38.4-192H486.4L450.133 256zm-268.8 128C151.467 384 128 407.467 128 437.333c0 29.867 23.467 53.333 53.333 53.333 29.867 0 53.333-23.467 53.333-53.333C234.667 407.467 211.2 384 181.333 384zm0 85.333c-17.067 0-32-14.934-32-32s14.933-32 32-32 32 14.934 32 32-14.933 32-32 32zM394.667 384c-29.867 0-53.333 23.467-53.333 53.333 0 29.867 23.467 53.333 53.333 53.333 29.867 0 53.333-23.467 53.333-53.333S424.533 384 394.667 384zm0 85.333c-17.067 0-32-14.934-32-32s14.933-32 32-32 32 14.934 32 32-14.934 32-32 32z"/></svg><svg fill="none" viewBox="0 0 16 14" id="star" xmlns="http://www.w3.org/2000/svg"><path d="M3.7 14a.262.262 0 01-.261-.307l.82-4.74-3.47-3.355a.262.262 0 01.147-.449l4.794-.691L7.874.147a.265.265 0 01.475 0l2.143 4.311 4.794.691c.1.015.183.084.214.18.031.094.005.2-.067.269l-3.469 3.356.819 4.738a.265.265 0 01-.384.277L8.11 11.732 3.823 13.97A.27.27 0 013.7 14z" fill="#FFA800"/></svg><svg aria-hidden="true" data-prefix="fab" data-icon="twitter" class="usvg-inline--fa ufa-twitter ufa-w-16" viewBox="0 0 512 512" id="twitter" xmlns="http://www.w3.org/2000/svg"><path fill="currentColor" d="M459.37 151.716c.325 4.548.325 9.097.325 13.645 0 138.72-105.583 298.558-298.558 298.558-59.452 0-114.68-17.219-161.137-47.106 8.447.974 16.568 1.299 25.34 1.299 49.055 0 94.213-16.568 130.274-44.832-46.132-.975-84.792-31.188-98.112-72.772 6.498.974 12.995 1.624 19.818 1.624 9.421 0 18.843-1.3 27.614-3.573-48.081-9.747-84.143-51.98-84.143-102.985v-1.299c13.969 7.797 30.214 12.67 47.431 13.319-28.264-18.843-46.781-51.005-46.781-87.391 0-19.492 5.197-37.36 14.294-52.954 51.655 63.675 129.3 105.258 216.365 109.807-1.624-7.797-2.599-15.918-2.599-24.04 0-57.828 46.782-104.934 104.934-104.934 30.213 0 57.502 12.67 76.67 33.137 23.715-4.548 46.456-13.32 66.599-25.34-7.798 24.366-24.366 44.833-46.132 57.827 21.117-2.273 41.584-8.122 60.426-16.243-14.292 20.791-32.161 39.308-52.628 54.253z"/></svg><svg viewBox="0 0 504 504" id="visa" xmlns="http://www.w3.org/2000/svg"><path fill="#3c58bf" d="M184.8 324.4l25.6-144h40l-24.8 144z"/><path fill="#293688" d="M184.8 324.4l32.8-144h32.8l-24.8 144z"/><path d="M370.4 182c-8-3.2-20.8-6.4-36.8-6.4-40 0-68.8 20-68.8 48.8 0 21.6 20 32.8 36 40s20.8 12 20.8 18.4c0 9.6-12.8 14.4-24 14.4-16 0-24.8-2.4-38.4-8l-5.6-2.4-5.6 32.8c9.6 4 27.2 8 45.6 8 42.4 0 70.4-20 70.4-50.4 0-16.8-10.4-29.6-34.4-40-14.4-7.2-23.2-11.2-23.2-18.4 0-6.4 7.2-12.8 23.2-12.8 13.6 0 23.2 2.4 30.4 5.6l4 1.6 6.4-31.2z" fill="#3c58bf"/><path d="M370.4 182c-8-3.2-20.8-6.4-36.8-6.4-40 0-61.6 20-61.6 48.8 0 21.6 12.8 32.8 28.8 40s20.8 12 20.8 18.4c0 9.6-12.8 14.4-24 14.4-16 0-24.8-2.4-38.4-8l-5.6-2.4-5.6 32.8c9.6 4 27.2 8 45.6 8 42.4 0 70.4-20 70.4-50.4 0-16.8-10.4-29.6-34.4-40-14.4-7.2-23.2-11.2-23.2-18.4 0-6.4 7.2-12.8 23.2-12.8 13.6 0 23.2 2.4 30.4 5.6l4 1.6 6.4-31.2z" fill="#293688"/><path d="M439.2 180.4c-9.6 0-16.8.8-20.8 10.4l-60 133.6h43.2l8-24h51.2l4.8 24H504l-33.6-144h-31.2zm-18.4 96c2.4-7.2 16-42.4 16-42.4s3.2-8.8 5.6-14.4l2.4 13.6s8 36 9.6 44h-33.6v-.8z" fill="#3c58bf"/><path d="M448.8 180.4c-9.6 0-16.8.8-20.8 10.4l-69.6 133.6h43.2l8-24h51.2l4.8 24H504l-33.6-144h-21.6zm-28 96c3.2-8 16-42.4 16-42.4s3.2-8.8 5.6-14.4l2.4 13.6s8 36 9.6 44h-33.6v-.8z" fill="#293688"/><path d="M111.2 281.2l-4-20.8c-7.2-24-30.4-50.4-56-63.2l36 128h43.2l64.8-144H152l-40.8 100z" fill="#3c58bf"/><path d="M111.2 281.2l-4-20.8c-7.2-24-30.4-50.4-56-63.2l36 128h43.2l64.8-144H160l-48.8 100z" fill="#293688"/><path d="M0 180.4l7.2 1.6c51.2 12 86.4 42.4 100 78.4l-14.4-68c-2.4-9.6-9.6-12-18.4-12H0z" fill="#ffbc00"/><path d="M0 180.4c51.2 12 93.6 43.2 107.2 79.2l-13.6-56.8c-2.4-9.6-10.4-15.2-19.2-15.2L0 180.4z" fill="#f7981d"/><path d="M0 180.4c51.2 12 93.6 43.2 107.2 79.2l-9.6-31.2c-2.4-9.6-5.6-19.2-16.8-23.2L0 180.4z" fill="#ed7c00"/><path d="M151.2 276.4L124 249.2l-12.8 30.4-3.2-20c-7.2-24-30.4-50.4-56-63.2l36 128h43.2l20-48zm74.4 48l-34.4-35.2-6.4 35.2zm92-49.6c3.2 3.2 4.8 5.6 4 8.8 0 9.6-12.8 14.4-24 14.4-16 0-24.8-2.4-38.4-8l-5.6-2.4-5.6 32.8c9.6 4 27.2 8 45.6 8 25.6 0 46.4-7.2 58.4-20l-34.4-33.6zm46.4 49.6h37.6l8-24h51.2l4.8 24H504L490.4 266l-48-46.4 2.4 12.8s8 36 9.6 44h-33.6c3.2-8 16-42.4 16-42.4s3.2-8.8 5.6-14.4" fill="#051244"/></svg><svg fill="none" viewBox="0 0 114 41" id="wezom-logo" xmlns="http://www.w3.org/2000/svg"><g clip-path="url(#wclip0)" fill-rule="evenodd" clip-rule="evenodd" fill="#fff"><path d="M111.763 2.453a7.437 7.437 0 00-10.488 0l-24.89 25.336a7.86 7.86 0 000 10.933 7.41 7.41 0 005.33 2.269 7.395 7.395 0 005.332-2.269l24.716-25.3a7.895 7.895 0 000-10.969z"/><path d="M51.704 2.453A7.445 7.445 0 0157.034.2a7.43 7.43 0 015.332 2.253l24.716 25.336a7.86 7.86 0 010 10.933 7.41 7.41 0 01-5.331 2.269 7.395 7.395 0 01-5.332-2.269l-24.715-25.3a7.86 7.86 0 010-10.969z"/><path d="M62.401 2.453A7.41 7.41 0 0057.07.185a7.396 7.396 0 00-5.331 2.268L27.023 27.789a7.86 7.86 0 000 10.933 7.445 7.445 0 005.331 2.253 7.43 7.43 0 005.331-2.253l24.716-25.336a7.86 7.86 0 000-10.933z"/><path d="M2.202 2.278A7.446 7.446 0 017.534.025a7.43 7.43 0 015.33 2.253L37.58 27.614a7.86 7.86 0 010 10.933 7.445 7.445 0 01-5.33 2.253 7.432 7.432 0 01-5.332-2.253L2.202 13.211a7.86 7.86 0 010-10.933z"/></g><defs><clipPath id="wclip0"><path fill="#fff" d="M0 0h114v41H0z"/></clipPath></defs></svg><svg aria-hidden="true" data-prefix="fab" data-icon="youtube" class="xsvg-inline--fa xfa-youtube xfa-w-18" viewBox="0 0 576 512" id="youtube" xmlns="http://www.w3.org/2000/svg"><path fill="currentColor" d="M549.655 124.083c-6.281-23.65-24.787-42.276-48.284-48.597C458.781 64 288 64 288 64S117.22 64 74.629 75.486c-23.497 6.322-42.003 24.947-48.284 48.597-11.412 42.867-11.412 132.305-11.412 132.305s0 89.438 11.412 132.305c6.281 23.65 24.787 41.5 48.284 47.821C117.22 448 288 448 288 448s170.78 0 213.371-11.486c23.497-6.321 42.003-24.171 48.284-47.821 11.412-42.867 11.412-132.305 11.412-132.305s0-89.438-11.412-132.305zm-317.51 213.508V175.185l142.739 81.205-142.739 81.201z"/></svg></svg>